<svg xmlns="http://www.w3.org/2000/svg" xmlns:xlink="http://www.w3.org/1999/xlink" version="1.1" width="1000" height="1000" viewBox="0 0 1000 1000" xml:space="preserve">
<desc>Created with Fabric.js 3.5.0</desc>
<defs>
</defs>
<rect x="0" y="0" width="100%" height="100%" fill="rgba(255,255,255,0)"/>
<g transform="matrix(37.8788 0 0 37.8788 500.0001 500.0001)" id="754589">
<path style="stroke: none; stroke-width: 1; stroke-dasharray: none; stroke-linecap: butt; stroke-dashoffset: 0; stroke-linejoin: miter; stroke-miterlimit: 4; is-custom-font: none; font-file-url: none; fill: rgb(255,255,255); fill-rule: nonzero; opacity: 1;" vector-effect="non-scaling-stroke" transform=" translate(-11.995, -12)" d="M 3.69 7 H 0 v -2 H 3.45 l 0.24 2 Z M 0 13 v 2 H 4.63 l -0.24 -2 H 0 Z m 3.92 -4 H 0 v 2 H 4.16 l -0.24 -2 Z m 17.67 6 H 8.65 l 0.13 1.12 c 0.06 0.5 0.49 0.88 0.99 0.88 h 11.22 v 2 H 9.78 c -1.52 0 -2.8 -1.14 -2.98 -2.65 L 5.21 2.88 c -0.06 -0.5 -0.49 -0.88 -0.99 -0.88 H 2 V 0 h 2.22 c 1.52 0 2.8 1.14 2.98 2.65 l 0.04 0.35 H 23.99 l -2.4 12 Z m -12.59 5 c -1.1 0 -2 0.9 -2 2 s 0.9 2 2 2 s 2 -0.9 2 -2 s -0.9 -2 -2 -2 Z m 9 0 c -1.1 0 -2 0.9 -2 2 s 0.9 2 2 2 s 2 -0.9 2 -2 s -0.9 -2 -2 -2 Z" stroke-linecap="round"/>
</g>
</svg>