<svg xmlns="http://www.w3.org/2000/svg" xmlns:xlink="http://www.w3.org/1999/xlink" version="1.1" width="1000" height="1000" viewBox="0 0 1000 1000" xml:space="preserve">
<desc>Created with Fabric.js 3.5.0</desc>
<defs>
</defs>
<rect x="0" y="0" width="100%" height="100%" fill="rgba(255,255,255,0)"/>
<g transform="matrix(37.8795 0 0 37.8795 500.0004 500.0004)" id="733975">
<path style="stroke: none; stroke-width: 1; stroke-dasharray: none; stroke-linecap: butt; stroke-dashoffset: 0; stroke-linejoin: miter; stroke-miterlimit: 4; is-custom-font: none; font-file-url: none; fill: rgb(255,255,255); fill-rule: nonzero; opacity: 1;" vector-effect="non-scaling-stroke" transform=" translate(-12, -12)" d="M 23.707 0.293 h 0 a 1 1 0 0 0 -1.414 0 L 12 10.586 L 1.707 0.293 a 1 1 0 0 0 -1.414 0 h 0 a 1 1 0 0 0 0 1.414 L 10.586 12 L 0.293 22.293 a 1 1 0 0 0 0 1.414 h 0 a 1 1 0 0 0 1.414 0 L 12 13.414 L 22.293 23.707 a 1 1 0 0 0 1.414 0 h 0 a 1 1 0 0 0 0 -1.414 L 13.414 12 L 23.707 1.707 A 1 1 0 0 0 23.707 0.293 Z" stroke-linecap="round"/>
</g>
</svg>