<svg width="951" height="740" viewBox="0 0 951 740" fill="none" xmlns="http://www.w3.org/2000/svg">
<path d="M236.23 3.65006C233.33 7.77006 229.7 19.7701 228.66 28.1001C227.77 35.9001 228.81 46.24 231.26 54.39C238.39 77.52 258.74 96.3601 286.21 105.12C300.54 109.68 304.7 110.29 321.19 110.29C335.45 110.29 337.45 110.11 344.95 108.01C352.38 105.91 366.48 100.47 365.96 99.8601C365.81 99.7701 362.54 100.65 358.68 101.88C352.37 103.81 350.21 104.07 338.26 104.16C327.27 104.16 323.63 103.81 317.84 102.32C303.43 98.5501 292.22 92.77 284.05 84.88C275.81 76.99 272.69 74.89 269.12 74.89C265.85 74.89 262.14 77.5201 262.14 79.8001C262.14 82.8701 260.58 80.4101 258.5 74.1001C255.46 64.9001 254.42 54.12 255.46 43.78C257.17 27.04 257.17 24.5901 255.91 19.2501C254.28 12.7701 251.38 9.17007 247.74 9.17007C246.33 9.17007 244.92 9.52005 244.7 10.0501C243.59 12.1501 242.92 10.6601 243.29 7.16006C243.66 4.27006 243.44 3.04006 242.47 1.90006C240.54 -0.379944 238.68 0.150055 236.23 3.65006ZM233.93 20.5601C232.82 27.4801 233.04 40.1901 234.38 46.3201C235.87 53.0701 240.54 65.07 243.96 70.59C247.45 76.37 246.63 76.11 242.92 70.24C233.49 55.43 229.78 37.4701 232.9 21.3501C234.23 14.2601 235.04 13.6401 233.93 20.5601Z" fill="#FFC632"/>
<path d="M707.69 1.73009C707.1 2.61009 706.87 4.53013 707.17 7.07013C707.47 10.4901 707.32 10.9301 706.28 10.4001C700.86 7.60011 696.55 10.6601 694.62 18.6401C693.58 22.6701 693.51 25.1201 694.03 31.9601C694.4 36.5201 694.7 45.8001 694.7 52.5501C694.7 65.3401 693.96 69.6401 690.39 77.8701L688.98 81.3701L687.94 79.0001C686.6 76.0201 684.75 74.8801 681.33 74.8801C677.77 74.8801 674.35 77.0701 667.22 83.9901C658.23 92.7501 646.35 98.8901 631.21 102.65C626.38 103.88 621.78 104.23 611.9 104.14C600.46 104.05 598.09 103.79 591.85 101.86C587.99 100.63 584.72 99.7601 584.57 99.8401C584.2 100.28 592.29 103.7 599.27 106.06C639.07 119.73 692.02 102.73 711.84 69.9601C715.78 63.4801 719.12 55.2401 720.68 48.1401C722.17 41.3901 722.09 28.6901 720.61 21.5001C719.12 14.4901 715.63 5.03011 713.48 2.40011C711.63 0.150108 709.03 -0.199911 707.69 1.73009ZM718.53 30.1201C719.42 43.5301 714.3 60.9601 706.13 72.2701C704.57 74.3701 704.94 73.3201 707.32 69.0301C714.82 55.1001 717.72 43.2701 717.05 29.7801C716.83 24.9601 716.46 19.7901 716.23 18.3901C716.01 16.8101 716.3 17.3401 716.97 19.6201C717.57 21.7901 718.31 26.5201 718.53 30.1201Z" fill="#FFC632"/>
<path d="M282.94 48.6001C281.53 49.5601 279.6 51.0501 278.63 51.9301L276.85 53.5101L279.82 54.5601C283.61 55.9601 287.17 60.5201 291.03 69.2801C296.23 81.2001 302.99 89.3501 311.82 94.3401C317.54 97.5801 328.16 99.8601 333.21 98.9801L336.7 98.3701L332.69 96.7101C326.97 94.3401 323.26 91.1901 320.81 86.6301C314.57 74.8901 317.54 61.0401 328.09 52.7201L329.87 51.4101L328.01 49.9201C323.33 46.3301 318.51 47.5501 315.68 53.0701L314.34 55.7001L312.78 52.6301C309.59 46.2301 304.31 44.9201 302.24 50.0901L301.13 52.8901L299.2 51.1401C294.15 46.8501 287.32 45.8001 282.94 48.6001ZM298.53 66.2101L301.43 72.6901L301.5 69.1901C301.65 62.4401 302.91 61.7401 302.91 68.4001C302.98 76.2001 304.99 81.1001 309.89 85.4001C313.97 88.9901 313.97 89.9601 309.82 86.8001C305.51 83.5601 302.69 79.0901 297.94 67.7001C293.34 56.5801 293.71 55.5301 298.53 66.2101Z" fill="#FFC632"/>
<path d="M640.34 48.4301C639.52 49.2201 638.04 51.3201 637.22 52.9901C636.33 54.6501 635.66 55.6201 635.66 55.0101C635.66 54.4801 634.55 52.5601 633.14 50.8901C630.17 47.1201 627.05 46.7701 623.04 49.5801L620.44 51.5101L622.3 52.8201C634.18 61.6701 636.11 79.5401 626.38 90.8501C623.78 93.9201 617.32 97.6001 614.28 97.7701C613.61 97.8601 614.21 98.2101 615.62 98.6501C618.89 99.7001 627.06 98.9101 632.18 97.0701C643.24 93.2101 652.97 83.5801 658.47 70.9601C663.45 59.6601 665.9 56.4101 671.02 54.3101L673.47 53.3501L669.31 50.1101C663.15 45.2901 657.35 45.8201 650.75 51.7701L648.3 53.9601V51.8601C648.29 47.4601 643.61 45.3601 640.34 48.4301ZM652.3 67.8801C647.18 80.2301 643.91 84.9701 638.49 88.0301C636.71 88.9901 635.97 89.3401 636.78 88.7301C637.52 88.1201 639.97 85.6601 642.13 83.3901C645.32 79.8001 646.14 78.3101 646.88 74.5401C647.33 72.0001 647.62 68.1401 647.47 65.9501C647.1 60.5201 648.14 61.4801 648.73 67.1801L649.25 71.6501L650.74 68.2301C652.3 64.5501 656.46 56.4901 656.83 56.4901C656.97 56.4901 654.89 61.6601 652.3 67.8801Z" fill="#FFC632"/>
<path d="M221.6 56.8401C221.38 57.9801 221.53 59.7301 221.97 60.7001C222.42 61.7501 222.79 62.6301 222.79 62.8001C222.79 62.9701 221.08 62.8901 218.93 62.7101C214.03 62.3601 210.54 64.3701 208.61 68.9301C205.34 76.4701 207.79 83.1201 214.7 85.4001C216.78 86.1001 217.67 85.2201 216.11 84.0901C214.62 82.9501 215.29 78.5701 217.3 76.7301C221.09 73.2301 225.1 74.6301 232.67 82.0701C238.09 87.4101 247.37 93.7201 254.2 96.6201C263.26 100.39 265.49 100.83 260.36 97.6701C251.6 92.3301 241.13 81.2001 232.96 68.3201C228.13 60.7801 223.6 54.7401 222.64 54.7401C222.35 54.7401 221.9 55.7001 221.6 56.8401Z" fill="#FFC632"/>
<path d="M473.26 56.0501C470.88 57.9801 469.84 63.6701 470.44 70.9501C470.96 78.0501 475.19 99.4301 476.01 99.4301C476.31 99.4301 477.35 96.1901 478.24 92.1601C482.4 74.0201 482.92 60.9701 479.65 56.8501C477.72 54.3901 475.56 54.1201 473.26 56.0501Z" fill="#FFC632"/>
<path d="M726.4 55.3501C725.88 55.6101 722.91 59.8201 719.79 64.6401C709.77 80.4101 700.04 91.1901 690.46 97.3201C684.82 100.91 685.11 101 692.61 98.0201C702.86 93.9901 709.54 89.5201 720.61 79.3601C725.81 74.6301 729.97 73.6601 733.16 76.6401C735.39 78.7401 735.76 81.4601 734.05 84.2601C733.01 86.0101 733.01 86.1001 735.61 85.4001C743.63 83.2101 745.56 71.9101 739.17 65.2501C736.65 62.7101 736.13 62.5301 732.12 62.8001C727.44 63.0601 727.52 63.1501 729 58.6801C729.37 57.2801 727.52 54.9101 726.4 55.3501Z" fill="#FFC632"/>
<path d="M171.11 64.81C167.92 71.99 166.8 78.39 167.25 87.5C167.55 93.72 167.99 95.91 169.85 100.29L172.23 105.55H169.04C158.05 105.55 144.76 113.17 138.82 122.81C137.56 124.91 136.67 126.84 136.82 127.1C137.04 127.28 139.79 126.57 143.06 125.61C151.75 122.81 165.71 122.98 183.08 125.96C195.93 128.15 203.13 129.03 226.3 130.95C248.21 132.79 263.8 138.66 278.35 150.49C284.81 155.75 291.79 164.33 294.98 170.91C296.24 173.54 297.36 175.55 297.58 175.29C297.73 175.11 296.61 171.17 294.98 166.62C288 146.55 274.56 129.47 258.07 119.74C251.09 115.62 242.55 112.82 229.41 110.36C210.4 106.77 201.71 104.23 194.21 99.93C181.44 92.57 174.53 81.4401 173.79 67.0701L173.42 59.53L171.11 64.81Z" fill="#FFC632"/>
<path d="M776.6 64.73C777.27 77.26 770.66 90.05 759.3 98.11C752.62 102.75 743.11 106 725.44 109.41C716.68 111.16 707.69 113.18 705.39 113.88C694.85 117.21 682.89 125.01 674.13 134.38C666.04 143.05 657.72 157.95 654.15 170.3C652.22 176.78 652.37 176.87 655.56 170.48C661.28 159.09 674.79 146.47 688.46 139.9C700.34 134.12 712.37 131.49 733.31 130.09C747.86 129.13 753.88 128.34 769.7 125.53C784.03 122.99 799.4 122.99 807.5 125.62C810.77 126.58 813.51 127.46 813.66 127.46C814.7 127.46 811.06 121.68 807.72 118.17C800.37 110.2 789.23 105.03 780.99 105.73C779.06 105.91 777.5 105.91 777.5 105.82C777.5 105.73 778.32 104.16 779.36 102.4C783.3 95.57 784.56 83.82 782.33 74.1C781.29 69.37 777.65 59.99 776.83 59.99C776.6 59.99 776.53 62.1 776.6 64.73Z" fill="#FFC632"/>
<path d="M444.97 64.0201C439.99 68.1401 446.53 80.4101 462.57 97.4001C466.8 101.87 470.44 105.37 470.59 105.2C471.11 104.67 465.84 90.22 462.2 81.89C458.04 72.51 454.33 66.5601 451.28 64.3701C448.38 62.2701 447.12 62.1801 444.97 64.0201Z" fill="#FFC632"/>
<path d="M500.96 64.2901C496.21 67.9701 490.64 78.6601 484.62 95.3101C482.76 100.48 481.2 104.95 481.2 105.21C481.2 107.49 500.36 85.9301 504.74 78.6601C508.68 72.1801 509.64 67.0901 507.56 64.3801C505.86 62.1801 503.71 62.1801 500.96 64.2901Z" fill="#FFC632"/>
<path d="M405.84 90.5701C395.82 93.9901 389.5 98.5401 376.73 111.51C355.79 132.8 341.31 142 323.41 145.51L320.44 146.04L323.41 147.44C325.27 148.23 329.05 148.75 333.51 148.84L340.71 148.93L338.85 151.56C336.99 154.1 336.99 154.19 337.44 166.89C337.89 178.46 337.81 179.86 336.55 182.84C335.73 184.68 335.44 185.91 335.96 185.56C336.41 185.21 341.83 184.68 347.92 184.33C360.4 183.8 364.41 182.31 366.71 177.32C369.38 171.71 369.53 171.54 370.79 174.43C372.13 177.58 377.7 185.03 379.48 186.17C380.67 186.96 380.74 186.43 380.37 178.72C380.22 174.16 380.22 170.4 380.44 170.4C380.66 170.4 382.15 171.28 383.63 172.33L386.38 174.26L385.93 171.63C384.44 163.66 383.85 155.16 384.22 149.2C384.74 141.93 387.26 130.97 388.38 130.97C388.83 130.97 389.12 131.32 389.12 131.76C389.12 132.2 390.16 133.78 391.42 135.26C393.28 137.54 394.32 137.98 397.06 137.98C399.88 137.98 400.77 137.54 402.93 135C406.12 131.23 406.2 129.92 403.23 131.23C398.7 133.25 394.47 129.04 393.8 121.94C392.98 113.97 399.07 106.52 410.73 101.17C421.65 96.1801 433.08 95.5601 444.74 99.4201C447.71 100.47 450.31 101.08 450.46 100.91C451.13 100.21 435.24 91.4501 431.08 90.2201C424.99 88.3801 411.63 88.5601 405.84 90.5701ZM409.25 96.3601C402.49 99.5101 395.14 105.56 389.42 112.83C386.75 116.33 380.14 126.85 374.87 136.22C362.32 158.48 358.16 164.7 351.63 170.65C349.92 172.23 351.33 170.04 355.05 165.48C358.91 160.75 364.04 152.95 367.97 145.85C371.53 139.37 376.36 130.69 378.66 126.57C383.56 117.81 394.7 104.23 399.75 100.72C404.13 97.7401 411.33 94.15 412.89 94.24C413.48 94.25 411.85 95.2201 409.25 96.3601Z" fill="#FFC632"/>
<path d="M519.45 90.2201C513.66 92.0601 508.61 94.6001 503.86 98.1101C499.33 101.35 499.55 101.44 507.57 98.7201C514.62 96.4401 528.44 96.7001 535.05 99.2501C546.34 103.72 554.51 110.38 556.29 116.69C558.74 125.54 552.43 134.65 546.49 130.97C544.04 129.39 544.78 132.28 547.68 135.26C552.14 139.82 557.48 138.68 560.68 132.46L562.09 129.74L562.91 132.37C566.25 142.53 567.07 158.39 564.91 168.82C564.32 171.62 564.02 173.9 564.24 173.9C564.39 173.9 565.73 173.11 567.06 172.06C569.36 170.4 569.66 170.4 570.03 171.71C570.33 172.5 570.33 176.35 570.03 180.21L569.51 187.22L572.48 184.5C574.04 183.01 576.64 179.51 578.2 176.79L580.95 171.88L582.29 174.95C585.48 182.22 590.38 184.41 603.75 184.41C608.21 184.41 612.66 184.76 613.7 185.29L615.56 186.08L614.07 183.1C612.73 180.38 612.58 178.89 612.81 167.07C613.03 154.89 612.88 153.75 611.47 151.39L609.91 148.94L616.67 148.85C623.8 148.85 629.96 147.19 628.18 145.78C627.59 145.34 626.1 144.99 624.91 144.99C621.94 144.99 614.22 142.36 607.76 139.12C598.03 134.13 585.41 123.96 572.93 110.82C562.31 99.6001 553.03 93.0301 543.9 90.3201C538.24 88.5601 524.65 88.5601 519.45 90.2201ZM542.47 96.0101C548.71 98.7301 557.02 105.74 562.52 112.83C565.27 116.33 570.69 125.01 574.62 132.11C584.87 150.6 589.4 158.13 594.74 165.41C599.42 171.72 599.42 171.72 593.25 164.27C589.02 159.1 584.19 151.65 577.28 139.3C571.86 129.66 565.55 119.15 563.25 115.82C556.79 106.62 548.62 99.7001 539.64 95.8401C537.49 94.9601 536.37 94.2601 537.04 94.1801C537.79 94.1701 540.17 94.9501 542.47 96.0101Z" fill="#FFC632"/>
<path d="M369.08 102.4C363.14 106.26 343.16 113.09 330.09 115.81C322.07 117.39 292.29 118 285.98 116.69C282.94 116.08 282.79 116.16 283.75 117.48C285.75 120.37 293.63 125.72 298.45 127.56C301.12 128.52 305.43 129.4 307.95 129.49C310.4 129.58 312.33 129.93 312.18 130.19C312.03 130.54 308.47 132.47 304.31 134.57L296.81 138.43L299.63 139.22C309.8 142.02 336.16 130.37 357.55 113.63C368.26 105.21 375.09 98.55 369.08 102.4ZM349.03 115.63C349.03 115.81 345.84 117.21 341.98 118.7C332.85 122.12 319.85 123.78 311.91 122.47L306.34 121.59L316.51 121.41C326.61 121.32 337.01 119.57 344.58 116.68C348.36 115.19 349.03 115.02 349.03 115.63Z" fill="#FFC632"/>
<path d="M581.82 104.33C588.58 111.34 606.7 124.31 617.83 130.09C631.34 137.1 645.45 140.95 651.17 139.11L653.69 138.32L647.01 135.08C637.28 130.26 636.76 129.65 642.48 129.47C648.72 129.21 656.14 126.32 661.79 121.85C666.91 117.73 668.25 115.54 664.83 116.68C663.72 117.03 654.88 117.38 645.3 117.38C630.37 117.38 626.44 117.03 618.27 115.36C606.83 112.91 595.7 109.23 585.97 104.67L578.84 101.25L581.82 104.33ZM611.16 118.44C616.8 120.19 620.81 120.81 631.21 121.24L644.21 121.85L637.68 122.55C626.99 123.78 611.91 121.06 603.74 116.59C602.33 115.8 601.81 115.36 602.63 115.71C603.43 115.98 607.3 117.21 611.16 118.44Z" fill="#FFC632"/>
<path d="M194.57 136.57C194.57 137.45 199.32 139.46 205.78 141.39C215.28 144.28 229.17 143.58 237.64 139.9C240.02 138.85 233.63 138.24 213.51 137.53C205.34 137.27 197.77 136.83 196.65 136.57C195.46 136.31 194.57 136.31 194.57 136.57Z" fill="#FFC632"/>
<path d="M734.05 137.63C708.58 139.03 710.58 138.77 712.89 139.82C722.69 144.46 738.58 144.2 751.21 139.29C754.92 137.8 757.22 136.14 755.22 136.4C754.62 136.4 745.12 137.01 734.05 137.63Z" fill="#FFC632"/>
<path d="M176.01 147.61C176.01 149.01 182.92 155.5 186.48 157.42C190.19 159.52 191.08 160.75 188.78 160.75C186.55 160.75 183.73 165.04 180.61 173.02C178.75 177.84 176.75 181.52 174.97 183.36C172.67 185.73 172.45 186.25 173.56 186.69C175.42 187.3 181.36 190.81 187 194.49C192.79 198.26 196.5 198.52 201.11 195.37L204.23 193.27V197.3C204.23 201.77 206.31 211.58 207.27 211.58C207.57 211.58 208.01 210.53 208.31 209.13C208.53 207.82 209.8 204.84 211.06 202.47C213.44 197.83 213.44 197.83 215.81 202.47C216.48 203.87 216.78 203.43 217.96 199.32C220.86 188.63 227.46 176.98 233.33 172.07L235.56 170.14L235.04 172.07C234.37 174.61 235.93 179.78 237.86 181.36C239.86 183.02 245.06 183.11 246.92 181.45C248.18 180.4 248.18 180.31 246.25 179.7C241.72 178.39 239.94 172.6 242.46 166.91C245.28 160.51 251.82 158.15 262.36 159.81C273.65 161.56 282.48 166.73 290.95 176.55L295.85 182.25L293.7 177.87C287.91 166.04 281.89 158.77 273.58 153.6C262 146.42 251.23 145.54 231.33 150.27C210.09 155.26 192.57 154.83 180.54 149.13C178.01 147.88 176.01 147.26 176.01 147.61ZM265.12 154.71C270.54 156.11 269.35 156.46 263.34 155.32C257.25 154.09 248.79 155.23 240.99 158.21C238.17 159.35 229.11 164.17 220.94 168.9C212.77 173.63 204.45 178.28 202.38 179.15C197.78 181.17 189.31 183.79 188.94 183.27C188.79 183.09 190.87 182.22 193.62 181.34C200.82 179.06 207.43 175.73 219.39 168.28C231.35 160.83 239.74 156.71 246.2 155.05C251.75 153.57 260.14 153.49 265.12 154.71Z" fill="#FFC632"/>
<path d="M691.73 147.61C677.84 150.15 665.89 159.79 658.24 174.6C654.38 182.05 654.08 183.45 657.27 178.89C662.47 171.53 673.01 163.73 681.77 161.1C687.56 159.26 698.18 159 701.97 160.57C705.53 162.15 708.5 166.7 708.95 171.52C709.32 174.94 709.1 175.55 706.95 177.65C705.69 178.96 704.05 180.02 703.39 180.02C702.28 180.11 702.35 180.28 703.54 181.33C704.36 182.03 706.44 182.64 708.14 182.64C712.22 182.64 715.12 178.96 715.12 173.79V170.29L718.16 173.18C723.73 178.52 729.45 188.86 732.27 198.85C733.68 203.93 734.35 204.46 735.31 201.22C735.83 199.64 736.57 198.5 737.02 198.68C737.39 198.86 738.95 201.83 740.51 205.34C742 208.84 743.41 211.3 743.63 210.86C744.52 209.11 746.3 199.64 746.3 196.49V193.07L748.53 195C749.94 196.31 752.09 197.1 754.62 197.28C757.89 197.54 759.22 197.19 762.64 194.91C767.91 191.49 775.26 187.29 777.05 186.59C778.39 186.15 778.24 185.89 776.16 184.4C774.45 183.17 772.89 180.46 770.37 174.24C766.43 164.78 763.91 160.75 761.83 160.75C759.45 160.75 760.27 159.52 764.13 157.33C767.84 155.23 774.53 149.01 774.53 147.6C774.53 147.25 772.45 147.95 769.93 149.09C757.53 155.05 740.45 155.22 716.98 149.79C706.21 147.35 697.67 146.56 691.73 147.61ZM703.98 155.06C711.48 157.16 715.86 159.35 731.68 168.73C739.77 173.55 749.28 178.63 752.84 180.12C756.92 181.78 758.19 182.49 756.33 182.22C751.8 181.34 741.26 176.17 727.74 168.03C712 158.65 703.68 155.41 694.7 155.24C691.06 155.15 686.53 155.33 684.68 155.68L681.34 156.21L684.31 155.07C688.31 153.49 698.11 153.49 703.98 155.06ZM761.68 183.19C761.46 183.45 760.79 183.54 760.27 183.28C759.68 183.02 759.9 182.75 760.72 182.75C761.53 182.66 761.97 182.93 761.68 183.19Z" fill="#FFC632"/>
<path d="M42.94 171.01C42.64 181.26 42.2 185.99 41.23 189.06C39.45 194.76 33.58 202.2 28.38 205.18C24.37 207.55 23.55 207.63 12.04 207.98L0.0100098 208.24V403.03V597.9L12.49 598.16C23.55 598.42 25.26 598.6 28.31 600.44C33.81 603.59 37.59 608.06 40.27 614.46C42.65 620.16 42.72 620.51 43.02 634.09L43.24 647.93H79.92C111.92 647.93 116.6 647.75 116.6 646.62C116.6 645.48 112 645.31 81.18 645.13L45.69 644.87L45.32 631.29C44.95 617.88 44.87 617.62 42.42 612.19C39.38 605.53 34.7 600.36 29.13 597.29C25.27 595.19 23.86 594.92 13.98 594.66L2.99001 594.31V403.03V211.84L13.24 211.4C21.26 211.05 24.3 210.52 27.65 209.03C35.08 205.61 41.02 198.6 43.91 189.67C45.02 186.08 45.32 182.92 45.32 173.02V160.75H80.96C116.08 160.75 116.6 160.75 116.6 159C116.6 157.25 116.08 157.25 79.92 157.25H43.24L42.94 171.01Z" fill="#FFC632"/>
<path d="M833.56 158.13C833.34 158.57 833.34 159.36 833.56 159.88C833.86 160.41 846.56 160.76 869.13 160.76H904.25L904.62 173.29C904.92 185.03 905.07 186.17 907.22 191.6C910.12 198.96 913.75 203.6 919.1 207.02C924.45 210.35 930.09 211.58 939.89 211.58H947.54V402.94V594.3L936.55 594.65C925.93 594.91 925.49 595 920.66 597.8C914.5 601.39 908.93 608.31 906.63 615.32C905.29 619.44 904.92 622.59 904.63 632.76L904.33 645.29H868.9C837.86 645.29 833.41 645.47 833.41 646.6C833.41 647.74 838.01 647.91 870.39 647.91H907.3L907.6 633.63C907.82 620.22 907.97 619.17 909.9 614.53C912.28 608.75 917.25 602.96 922.15 600.34C925.12 598.68 927.42 598.32 937.89 597.97L950.14 597.53L950.36 402.84L950.51 208.23L938.48 207.88C927.19 207.62 926.08 207.44 922.22 205.34C916.87 202.36 912.27 196.93 909.74 190.62C907.96 186.06 907.81 184.75 907.59 171.43L907.29 157.24H870.68C847 157.25 833.85 157.6 833.56 158.13Z" fill="#FFC632"/>
<path d="M55.34 179.33C53.93 197.99 46.8 210.79 33.58 218.32C29.12 220.86 26.67 221.56 20.36 222.35L12.64 223.31V403.2V583.09H17.02C32.99 583.09 46.43 593.6 52.66 611.04C53.7 614.02 54.66 619.19 55.11 624.88L55.93 633.9H86.23C109.77 633.9 116.53 633.64 116.82 632.76C116.97 632.23 116.82 630.57 116.45 629.08C116.15 627.68 116.08 625.14 116.3 623.65L116.75 620.76H91.43H66.11L65.74 618.31C65.52 617 64.48 612.88 63.51 609.2C58.68 590.97 45.47 576.69 28.98 571.79L23.41 570.13L23.19 402.77L23.04 235.41L28.68 233.92C37.15 231.73 45.39 226.3 51.63 219.02C59.2 210.08 63.21 201.06 65.66 187.65L66.11 185.28H91.28H116.38L116.45 180.64C116.45 178.19 116.6 175.3 116.75 174.33C116.97 172.58 116.53 172.58 86.45 172.31L55.86 172.13L55.34 179.33Z" fill="#FFC632"/>
<path d="M833.56 175.39C834.15 178.81 834.23 180.12 833.78 183.1C833.56 184.85 834 184.85 858.88 185.12L884.2 185.3L885.09 190.38C888.21 206.94 898.01 221.75 910.78 229.2C914.05 231.04 918.95 233.23 921.77 234.11L926.75 235.51V403.03V570.47L922.15 571.52C916.36 572.75 906.85 578.27 901.73 583.26C893.56 591.32 887.77 602.36 885.39 614.37L884.13 620.77L858.81 620.95C836.76 621.21 833.64 621.39 833.86 622.53C834.08 623.23 834.08 624.98 834.01 626.47C833.86 627.87 833.71 630.06 833.64 631.29L833.57 633.48L864.24 633.74L894.83 633.92V629.28C894.83 603.43 911.54 583.1 932.85 583.1H937.9V403.2V223.31L930.03 222.35C923.2 221.47 921.27 220.86 916.07 217.79C909.46 213.93 903.37 207.36 899.81 200.09C897.29 194.92 894.83 183.79 894.83 177.22V172.14H863.94H833.05L833.56 175.39Z" fill="#FFC632"/>
<path d="M205.41 532.97C204.74 535.77 204.22 539.89 204.22 542.08V546.2L200.8 543.92C195.82 540.59 192.11 541.29 183.65 547.07C179.94 549.52 175.63 552.06 174.07 552.59C172.36 553.12 171.62 553.73 172.29 553.99C174.89 554.95 177.86 559.42 180.61 566.43C183.73 574.4 185.73 577.56 188.56 578.78C190.27 579.57 190.12 579.74 186.56 581.85C182.85 584.04 176.02 590.44 176.02 591.84C176.02 592.19 178.1 591.49 180.62 590.35C186.93 587.28 194.95 585.79 204.38 585.71C213.44 585.71 219.9 586.59 233.56 589.83C262.67 596.66 280.86 588.08 293.78 561.62L295.86 557.24L290.96 562.94C282.42 572.75 273.66 577.92 262.37 579.68C251.83 581.34 245.29 578.98 242.47 572.58C239.95 566.88 241.73 561.1 246.26 559.79C248.19 559.18 248.19 559.09 246.93 558.04C245.07 556.38 239.88 556.46 237.87 558.13C235.94 559.71 234.38 564.88 235.05 567.42L235.57 569.35L233.34 567.42C227.47 562.51 220.86 550.86 217.97 540.17C216.78 536.05 216.48 535.61 215.82 537.02C213.44 541.66 213.44 541.66 211.07 537.02C209.81 534.65 208.55 531.68 208.32 530.27C207.57 526.66 206.75 527.36 205.41 532.97ZM199.03 559.08C202.37 560.31 211.95 565.3 220.42 570.21C228.89 575.2 238.02 580.11 240.77 581.16C250.13 584.75 258.22 585.45 267.21 583.53C268.32 583.35 267.73 583.71 265.87 584.49C263.42 585.45 260.52 585.72 254.73 585.45C244.48 584.92 238.24 582.47 220.65 571.87C206.1 563.11 202.01 561.01 194.96 558.55C192.51 557.67 191.1 556.89 191.77 556.89C192.42 556.8 195.69 557.85 199.03 559.08Z" fill="#FFC632"/>
<path d="M740.36 534.28C738.95 537.7 737.39 540.59 737.02 540.76C736.57 540.94 735.83 539.8 735.31 538.22C734.34 534.98 733.68 535.5 732.27 540.59C729.45 550.58 723.51 561.36 718.01 566.44L715.11 569.24V565.56C715.11 560.57 711.99 556.8 707.91 556.8C705.01 556.8 700.63 559.34 703.38 559.43C704.05 559.43 705.68 560.48 706.94 561.8C709.09 563.9 709.32 564.52 708.94 568.02C708.49 572.84 706.56 575.99 702.78 578.27C700.48 579.67 698.47 580.02 692.83 580.02C680.28 579.93 669.14 574.32 659.71 563.37C657.11 560.39 654.96 558.03 654.96 558.2C654.96 558.37 656.45 561.35 658.23 564.86C666.18 580.28 677.46 589.13 692.46 591.85C698.99 592.99 704.34 592.55 717.04 589.57C740.88 584.05 758.48 584.58 771.17 590.97C774.51 592.63 774.51 592.63 773.77 590.97C772.73 588.69 766.86 583.52 763.3 581.59C760.18 580.01 759.51 578.7 761.81 578.7C763.89 578.7 766.41 574.67 770.35 565.12C772.8 559.34 774.51 556.18 775.92 555.22L778 553.91L770.87 549.53C766.93 547.16 762.4 544.45 760.85 543.48C757.14 541.29 751.64 541.64 748.45 544.44L746.3 546.37V542.95C746.3 539.45 744.37 529.54 743.48 528.67C743.19 528.41 741.78 530.95 740.36 534.28ZM761.68 556.45C761.46 556.71 760.79 556.8 760.27 556.54C759.68 556.28 759.9 556.01 760.72 556.01C761.53 555.93 761.97 556.19 761.68 556.45ZM752.84 559.43C749.28 560.83 739.77 565.91 731.68 570.73C715.94 580.11 711.56 582.3 703.98 584.4C698.11 585.98 688.31 585.98 684.3 584.4L681.33 583.26L684.67 583.79C686.53 584.14 691.06 584.32 694.69 584.23C703.97 584.05 710.73 581.34 729.59 570.39C744.29 561.8 754.47 556.9 757.81 556.9C758.63 556.89 756.4 558.03 752.84 559.43Z" fill="#FFC632"/>
<path d="M377.25 555.58C375.62 557.33 373.17 560.75 371.9 563.12C369.3 567.76 369.38 567.76 366.7 562.16C364.4 557.17 360.39 555.68 347.91 555.15C341.82 554.8 336.4 554.27 335.95 553.92C335.43 553.57 335.73 554.8 336.54 556.64C337.8 559.62 337.88 561.02 337.43 572.59L336.98 585.38L338.84 588.01L340.77 590.64H334.31C327.48 590.55 319.9 592.39 321.69 593.71C322.21 594.15 323.69 594.5 324.96 594.5C329.12 594.5 340.18 598.88 347.46 603.35C356.37 608.69 364.98 616.05 377.01 628.23C387.41 638.83 395.35 644.88 402.93 647.94C409.76 650.66 423.72 651.44 430.78 649.34C435.24 648.03 451.2 639.35 450.53 638.56C450.31 638.38 447.71 639 444.74 640.05C433.08 643.91 421.65 643.29 410.73 638.3C399.07 632.96 392.98 625.51 393.8 617.53C394.47 610.43 398.7 606.23 403.23 608.24C406.2 609.55 406.13 608.24 402.93 604.47C400.78 601.93 399.89 601.49 397.06 601.49C394.31 601.49 393.27 601.93 391.42 604.21C390.16 605.7 389.12 607.28 389.12 607.71C389.12 608.15 388.82 608.5 388.38 608.5C387.27 608.5 384.74 597.55 384.22 590.27C383.85 584.31 384.44 575.81 385.93 567.84L386.38 565.21L383.63 567.14C382.14 568.19 380.66 569.07 380.44 569.07C380.22 569.07 380.22 565.3 380.37 560.75C380.59 556.19 380.67 552.43 380.52 552.43C380.37 552.43 378.88 553.82 377.25 555.58ZM357.35 574.94C360.99 579.5 367.97 590.89 376.66 606.48C388.17 627.25 397.38 637.5 409.26 643.11C411.86 644.34 413.05 645.13 411.78 644.86C410.59 644.6 406.73 642.76 403.24 640.74C397.97 637.76 395.74 635.75 389.8 628.74C385.42 623.48 380.81 616.91 377.62 611.13C374.87 606.05 370.05 597.37 367 591.85C363.88 586.33 358.53 578.27 355.04 573.98C351.33 569.42 349.92 567.23 351.62 568.81C353.26 570.3 355.79 573.1 357.35 574.94Z" fill="#FFC632"/>
<path d="M570.02 559.26C570.32 563.12 570.32 566.97 570.02 567.76C569.65 569.07 569.35 569.07 567.05 567.41C565.71 566.36 564.38 565.57 564.23 565.57C564.01 565.57 564.3 567.85 564.9 570.56C567.05 581.07 566.24 596.93 562.9 607.1L562.08 609.73L560.67 607.01C557.48 600.79 552.13 599.65 547.67 604.21C544.77 607.19 544.03 610.08 546.48 608.5C552.05 605 557.99 612.62 556.58 621.47C555.54 628.22 546.11 636.28 534.3 640.57C528.43 642.67 513.14 642.76 507.2 640.75C504.97 639.96 502.3 639 501.26 638.73L499.4 638.12L501.11 639.52C504.45 642.5 514.4 647.76 519.15 649.16C526.13 651.18 538.16 651 544.62 648.81C554.2 645.57 562.29 639.87 572.91 628.66C589.77 610.87 604.84 600.18 619.02 595.8C621.4 595.1 624.44 594.49 625.78 594.49C627.04 594.49 628.3 594.14 628.6 593.61C629.34 592.21 622.96 590.63 616.27 590.63H609.81L611.44 588.09C612.93 585.72 613 584.67 612.78 572.41C612.56 560.49 612.63 559.09 614.04 556.29C614.93 554.63 615.15 553.49 614.71 553.92C614.19 554.27 608.7 554.8 602.53 555.06C589.39 555.67 586.94 556.72 583.15 563.21L580.77 567.33L578.1 562.51C576.61 559.88 574.02 556.46 572.46 554.97L569.49 552.25L570.02 559.26ZM596.01 572.93C590.37 579.76 586.58 585.81 574.77 607.19C566.08 622.79 559.62 631.37 552.12 637.33C546.7 641.54 539.57 645.39 537.05 645.22C536.38 645.22 537.12 644.69 538.83 644.08C543.21 642.42 550.12 637.95 554.87 633.48C560.81 627.96 565.86 620.42 577.59 599.75C585.02 586.52 589.4 579.77 594.08 574.08C597.64 569.87 600.69 566.46 600.99 566.46C601.21 566.44 598.98 569.33 596.01 572.93Z" fill="#FFC632"/>
<path d="M294.82 568.81C291.85 574.94 282.64 585.98 276.85 590.36C262.3 601.31 247.22 606.75 226.87 608.5C200.14 610.78 195.61 611.3 183.43 613.49C166.65 616.47 151.87 616.64 142.96 613.93C139.69 612.97 136.87 612.27 136.72 612.44C136.27 613.05 138.65 617 141.55 620.41C147.86 627.86 157.44 632.94 166.43 633.64L172.07 634.17L169.84 639.34C165.68 648.8 166.2 663.61 171.1 674.65L173.4 679.91L173.77 672.37C174.59 656.51 182.76 644.77 198.2 637.41C204.36 634.43 209.78 632.94 227.53 629.52C242.53 626.63 250.92 623.91 258.05 619.71C274.54 609.98 287.98 592.9 294.96 572.83C296.59 568.27 297.71 564.33 297.56 564.16C297.35 563.9 296.16 566 294.82 568.81Z" fill="#FFC632"/>
<path d="M652.74 564.34C652.74 565.74 655.71 574.33 658.31 580.37C661.58 588.08 668.71 599.21 674.05 605.08C682.59 614.28 694.77 622.25 705.39 625.58C707.69 626.28 716.6 628.3 725.29 629.96C742.67 633.38 748.46 635.22 756.48 639.69C769.1 646.79 777.35 661.16 776.6 674.74C776.53 677.37 776.6 679.47 776.82 679.47C777.64 679.47 781.28 670.09 782.32 665.36C784.55 655.63 783.29 643.89 779.35 637.06C778.31 635.31 777.49 633.73 777.49 633.64C777.49 633.55 778.9 633.55 780.68 633.73C788.92 634.52 800.21 629.44 807.41 621.64C810.97 617.78 814.69 612 813.65 612C813.5 612 810.83 612.79 807.64 613.75C796.06 617.25 789.08 617.08 760.78 612.52C753.43 611.29 741.1 609.89 733.3 609.37C709.83 607.79 695.65 604.11 682.21 596.23C670.92 589.48 660.6 578.97 655.4 568.72C653.93 565.83 652.74 563.81 652.74 564.34Z" fill="#FFC632"/>
<path d="M208.76 597.2C200.67 599.04 190.12 604.12 196.95 602.9C198.29 602.64 205.94 602.2 213.88 601.94C221.83 601.68 230.81 601.24 233.86 600.89L239.36 600.36L236.46 599.22C229.1 596.32 216.4 595.44 208.76 597.2Z" fill="#FFC632"/>
<path d="M719.2 597.55C710.81 599.83 710.44 600.35 716.6 600.97C724.03 601.67 755.51 603.07 755.88 602.72C756.33 602.28 752.46 600.62 746.67 598.69C739.92 596.41 725.51 595.79 719.2 597.55Z" fill="#FFC632"/>
<path d="M298.61 600.53C297.12 600.97 298.02 601.67 304.4 604.91C308.48 607.01 312.05 608.94 312.2 609.29C312.42 609.64 310.49 609.99 307.89 610.08C305.37 610.17 301.13 610.96 298.46 612.01C293.63 613.76 285.76 619.11 283.76 622C282.79 623.31 282.94 623.4 285.99 622.79C292.3 621.48 322.08 622.09 330.1 623.67C343.02 626.39 362.1 632.87 369.9 637.34C373.46 639.44 366.56 632.96 357.57 625.95C347.47 617.98 330.99 607.99 322.22 604.57C312.57 600.7 302.91 599.04 298.61 600.53ZM334.92 618.58C340.86 620.24 349.25 623.49 348.81 623.92C348.66 624.1 346.36 623.48 343.76 622.61C335.89 619.72 326.38 618.14 316.06 617.97C308.86 617.88 307.22 617.71 309.67 617.18C314.42 616.21 329.28 617.09 334.92 618.58Z" fill="#FFC632"/>
<path d="M640.19 600.7C626.6 603.42 605.07 615.42 586.95 630.49C578.41 637.67 578.26 638.55 586.06 634.78C595.56 630.4 607.59 626.37 618.21 624.18C628.9 621.99 650.14 621.03 659.79 622.34C663.5 622.87 666.62 623.13 666.77 622.95C667.14 622.42 662.61 618.04 659.49 615.77C655.11 612.7 647.83 610.25 642.63 610.07C636.69 609.81 637.21 609.19 647.09 604.37C652.73 601.57 653.48 601.04 651.92 600.51C649.47 599.74 645.02 599.82 640.19 600.7ZM640.49 617.17C643.24 617.61 640.79 617.96 631.21 618.31C618.59 618.75 614.95 619.45 602.62 623.83C601.8 624.09 602.47 623.57 604.11 622.69C612.94 617.87 629.5 615.33 640.49 617.17Z" fill="#FFC632"/>
<path d="M303.36 630.05C285.39 633.29 268.38 640.48 255.61 650.2C249.89 654.67 238.61 668.25 235.49 674.47C229.92 685.69 227.32 699.7 228.66 711.36C230.22 724.15 236.16 739.05 239.87 739.05C242.47 739.05 243.81 736.42 243.29 732.3C242.92 728.8 243.59 727.31 244.7 729.41C244.92 729.85 246.33 730.29 247.74 730.29C251.38 730.29 254.27 726.7 255.91 720.21C257.17 714.87 257.17 712.41 255.46 695.68C254.42 685.34 255.46 674.56 258.5 665.36C260.58 659.05 262.14 656.6 262.14 659.66C262.14 661.94 265.85 664.57 269.12 664.57C272.61 664.57 275.73 662.47 284.05 654.67C290.36 648.62 295.34 645.47 304.1 641.79C322.89 633.99 343.75 632.77 360.83 638.29C363.5 639.17 365.81 639.78 365.95 639.6C366.32 639.25 354.22 634.17 349.09 632.59C336.26 628.65 316.87 627.6 303.36 630.05ZM243.95 668.87C240.53 674.48 235.86 686.39 234.3 693.49C233.26 697.96 233.11 701.46 233.41 709.7C233.63 715.48 234 721.18 234.23 722.4C234.45 723.63 234.16 722.84 233.49 720.65C232.82 718.46 232.15 712.94 231.93 708.38C231.56 701.46 231.78 698.74 233.12 693.13C235.05 684.89 238.84 675.52 242.92 669.12C246.63 663.35 247.44 663.09 243.95 668.87Z" fill="#FFC632"/>
<path d="M615.98 629.18C605.88 631.02 587.99 636.8 585.16 639.26C584.27 640.05 584.34 640.14 585.53 639.61C596.67 635.23 613.97 633.74 626.37 635.93C642.93 639 656.74 645.66 667.51 655.73C675.16 662.91 677.76 664.58 681.32 664.58C684.74 664.58 686.59 663.44 687.93 660.46L688.97 658.09L690.38 661.59C693.94 669.83 694.69 674.12 694.69 686.91C694.69 693.66 694.39 702.94 694.02 707.5C693.5 714.33 693.57 716.79 694.61 720.82C696.54 728.79 700.85 731.86 706.27 729.06C707.31 728.53 707.46 728.97 707.16 732.39C706.71 736.95 707.68 739.05 710.2 739.05C712.5 739.05 714.66 736.07 717.33 729.15C720.45 721 721.79 713.73 721.79 704.44C721.79 674.47 702.48 649.15 669.96 636.53C655.78 631.1 646.94 629.35 631.57 629.08C624.23 628.91 617.25 629 615.98 629.18ZM710.66 674.83C718.16 689.29 720.61 706.99 716.97 719.87C716.3 722.15 716 722.67 716.23 721.1C716.45 719.61 716.82 714.53 717.05 709.71C717.72 696.22 714.82 684.39 707.32 670.46C704.94 666.17 704.57 665.12 706.13 667.22C707.32 668.87 709.4 672.29 710.66 674.83Z" fill="#FFC632"/>
<path d="M258.06 641.27C249.59 644.42 241.8 649.33 234.07 656.17C225.38 663.88 224.34 664.58 221.07 664.58C216.84 664.58 213.57 658.27 216.24 655.12C217.58 653.54 214.31 653.72 211.64 655.38C207.26 658.01 206 664.58 208.67 670.71C210.67 675.27 213.65 677.11 218.77 676.67C222.11 676.49 222.71 676.67 222.33 677.72C221.36 680.26 221.29 682.54 221.96 683.85C222.93 685.51 225.15 683.06 231.17 673.77C241.71 657.38 252.93 645.38 262.36 640.56C266.01 638.64 263.86 638.99 258.06 641.27Z" fill="#FFC632"/>
<path d="M690.46 642.15C700.04 648.28 709.77 659.06 719.79 674.74C722.83 679.65 725.95 683.85 726.55 684.12C728.26 684.91 729.37 681.93 728.48 679.13L727.74 676.85H732.2C736.06 676.85 736.95 676.5 739.25 674.13C745.56 667.56 743.56 656.17 735.61 654.06C733.01 653.36 733.01 653.45 734.05 655.2C735.76 658 735.39 660.72 733.16 662.82C729.97 665.8 725.81 664.84 720.61 660.1C709.47 649.85 702.71 645.38 692.47 641.44C689.2 640.21 686.38 639.16 686.16 639.16C685.93 639.17 687.86 640.57 690.46 642.15Z" fill="#FFC632"/>
<path d="M323.48 641.01C308.93 643.81 298.46 653.28 291.03 670.19C287.17 678.86 283.6 683.51 279.89 684.82C278.33 685.43 277.22 686.22 277.44 686.66C278.48 688.59 285.76 692.62 288.21 692.62C291.48 692.62 296.45 690.69 299.2 688.33L301.13 686.58L302.24 689.38C304.32 694.55 309.59 693.24 312.78 686.84L314.34 683.77L315.68 686.4C318.5 691.92 323.33 693.15 328.01 689.55L329.87 688.06L328.09 686.75C317.55 678.43 314.58 664.58 320.81 652.84C323.26 648.28 326.97 645.13 332.62 642.76L336.48 641.18L334.1 640.57C331.21 639.95 328.31 640.04 323.48 641.01ZM311.9 652.13C305.22 657.65 302.99 662.21 302.91 671.23C302.91 677.71 301.65 676.93 301.5 670.27L301.43 666.77L298.53 673.43C296.97 677.02 295.26 680.44 294.67 680.97C293.48 682.2 301.28 663.45 303.66 659.5C305.44 656.43 311.68 650.56 313.02 650.65C313.46 650.64 312.94 651.35 311.9 652.13Z" fill="#FFC632"/>
<path d="M615.24 640.83C614.05 641.27 613.61 641.62 614.27 641.71C617.39 641.97 623.77 645.57 626.37 648.63C627.93 650.38 630.01 653.97 631.05 656.6C635.21 667.29 631.2 680.52 621.84 687C620.5 687.88 620.65 688.14 623.03 689.89C627.04 692.69 630.16 692.34 633.13 688.58C634.54 686.92 635.65 684.99 635.65 684.46C635.65 683.85 636.32 684.81 637.21 686.48C639.29 690.51 641.52 692.61 643.97 692.61C646.49 692.61 648.28 690.51 648.28 687.62V685.34L649.99 687.18C652.59 690.07 658.01 692.61 661.72 692.61C664.47 692.61 666.03 691.91 669.29 689.37L673.45 686.13L671 685.17C665.88 683.07 663.43 679.83 658.45 668.52C652.95 655.9 643.23 646.26 632.09 642.32C627.27 640.66 618.29 639.87 615.24 640.83ZM638.71 651.43C643.98 654.67 647.25 659.49 652.37 671.76C657.12 683.24 656.68 684.38 651.78 673.42L649.26 667.9L648.74 672.37C648.15 677.98 647.11 678.85 647.48 673.51C647.93 666.24 646.44 660.98 642.5 656.51C640.57 654.32 638.04 651.87 636.78 651.17C635.59 650.38 634.85 649.77 635.15 649.68C635.44 649.68 637.07 650.47 638.71 651.43Z" fill="#FFC632"/>
<path d="M465.17 655.11C450.91 669.74 443.41 680.43 442.82 686.92C442.45 690.25 442.67 690.86 444.38 692.18C445.57 693.14 446.98 693.49 448.09 693.14C450.76 692.35 456.04 685.52 459.53 678.33C462.95 671.32 470.45 651.52 469.93 650.99C469.77 650.73 467.62 652.66 465.17 655.11Z" fill="#FFC632"/>
<path d="M480.46 651.17C480.46 652.66 485.29 665.72 489 674.13C493.31 683.86 497.24 689.99 500.73 692.18C503.25 693.76 503.63 693.84 505.48 692.62C508.08 690.96 508.52 686.92 506.74 682.81C504.59 677.73 497.9 668.62 491.15 661.52C487.51 657.75 483.65 653.63 482.54 652.41C481.35 651.17 480.46 650.64 480.46 651.17Z" fill="#FFC632"/>
<path d="M472.82 665.19C469.03 682.28 468.36 691.65 470.67 697C473.34 703.31 478.84 702.26 480.55 695.07C481.22 692.18 481.22 689.37 480.62 683.42C479.73 675.27 476.39 658.54 475.35 657.31C475.04 656.95 473.85 660.46 472.82 665.19Z" fill="#FFC632"/>
<path d="M467.2 180.7C467.1 180.8 465.2 181.4 463 182C447.3 186.5 438.6 193.4 433 205.9C432.3 207.6 431.5 208.9 431.4 209C430.1 209.2 418.3 212.6 412.6 214.4C372.6 226.9 338.1 245.4 313.3 267.9C292.7 286.5 279.8 306.9 277 325.2C276.1 331.1 276.1 335.6 277.2 341.3L278.1 346L276.2 348.3C275.2 349.6 271.8 353.2 268.8 356.2C265.8 359.3 262.3 363.1 261.2 364.7C259.2 367.4 257.7 370.8 257.9 372.1C258 372.4 258.8 373.4 259.7 374.2C260.6 375 261.6 376 261.9 376.5C263 378 264.4 378.3 267.6 377.6C272.3 376.6 278.3 373.4 293.1 363.8C304.1 356.7 306 355.6 316.6 350.6C333.1 342.8 343.8 338.3 359.4 332.5C363.6 331 367.5 329.5 368 329.3C369.2 328.9 369.2 328.9 375.2 335.1C383.8 344 389 348.5 394.8 352.3C400.8 356.2 405.9 358.2 411.6 358.9C416.4 359.5 423.8 359 424.9 358C425.2 357.8 424.5 356.8 423 355.1C417.3 348.8 412.5 341.5 409.7 334.8C407.3 329.3 404.7 315.8 405.7 314C406.1 313.3 409.4 312.2 420.7 309C450.6 300.6 473.6 297.9 503.8 299.5C514 300 535.3 301.7 538.5 302.2C545.2 303.3 554.8 306.7 563.4 311C572.1 315.3 577.2 318.3 596.6 330.3C616.7 342.7 622.1 345.5 629.5 347.5C631 347.9 632.3 348.4 632.4 348.5C632.4 348.6 631.7 349.8 630.8 351.2C623.3 362 619.8 371.8 620.6 379.1C620.9 382.6 622.1 385.3 624.4 388.4C626.3 390.9 630.5 394.9 631.1 394.8C631.3 394.8 631.4 394.2 631.4 393.5C631.4 391.6 633.3 387.9 635.3 385.7C637.8 383 641.7 380.2 649.3 375.7C656.9 371.2 659.7 369.1 661.7 366.8L663.1 365.1L664.9 365.4C670.6 366.4 672.6 366.4 678.4 365.5C684.5 364.6 686.5 363.9 699.7 358.7C707.7 355.6 712.1 354.3 717.6 353.6C721.8 353 727 352.9 729.6 353.4C731 353.6 730.8 353.2 728.7 351.4C720.5 344.6 708.5 340.3 693.1 338.7C686.7 338 680.5 337.8 665.7 337.8C658.2 337.8 651.9 337.7 651.8 337.7C651.7 337.7 649.6 334.5 647 330.8C624.6 298 601.6 273.2 574.3 252.8C568 248.1 552.3 237.9 545.2 234C531.2 226.3 514.9 219.2 499.7 214.2C496.6 213.2 489.8 211.2 484.6 209.8L475 207.2L473.6 205.3C469.8 200.2 468.8 195.2 470.4 189.4C470.7 188.3 471.8 185.8 472.7 183.8C473.7 181.8 474.5 179.9 474.6 179.6C474.8 179.3 474 179.3 471.1 179.8C469.1 180.3 467.3 180.7 467.2 180.7Z" fill="#FFC632"/>
<path d="M248.056 513.304H245.406V486.506H248.359C250.781 494.076 254.591 500.056 259.789 504.447C265.038 508.787 270.942 510.957 277.503 510.957C284.821 510.957 290.978 508.661 295.974 504.068C301.02 499.476 303.544 493.874 303.544 487.263C303.544 479.491 295.923 473.208 280.682 468.414C279.471 468.06 278.563 467.783 277.957 467.581C264.937 463.443 256.282 459.203 251.992 454.863C247.703 450.473 245.558 444.543 245.558 437.074C245.558 428.696 248.308 421.883 253.809 416.635C259.31 411.336 266.476 408.686 275.308 408.686C281.868 408.686 288 410.377 293.703 413.758C294.763 414.414 295.393 414.742 295.595 414.742C295.898 414.692 296.15 414.616 296.352 414.515C296.605 414.364 296.832 414.162 297.034 413.91L299.986 410.655H303.241V433.97H300.44C297.967 426.653 294.485 421.177 289.993 417.543C285.552 413.91 280.102 412.093 273.642 412.093C267.788 412.093 262.842 413.859 258.805 417.392C254.818 420.874 252.825 425.139 252.825 430.185C252.825 434.374 254.364 437.806 257.443 440.48C260.521 443.155 265.568 445.426 272.583 447.293C273.592 447.546 275.131 447.949 277.2 448.505C288.908 451.633 296.655 454.636 300.44 457.513C303.771 460.087 306.294 463.291 308.01 467.127C309.776 470.962 310.659 475.302 310.659 480.147C310.659 490.695 307.531 499.097 301.273 505.355C295.065 511.613 286.663 514.742 276.065 514.742C268.646 514.742 261.858 512.723 255.701 508.686C254.692 508.03 254.112 507.702 253.96 507.702C253.809 507.702 253.607 507.777 253.355 507.929C253.153 508.08 252.926 508.282 252.673 508.534L248.056 513.304ZM335.035 478.557V483.099C335.035 493.344 336.347 500.51 338.971 504.598C341.646 508.635 346.238 510.654 352.749 510.654C358.249 510.654 362.918 509.19 366.753 506.263C370.639 503.286 373.288 499.122 374.701 493.773H378.108C376.594 500.687 373.541 505.885 368.948 509.367C364.406 512.849 358.376 514.59 350.856 514.59C342.327 514.59 335.161 511.739 329.357 506.036C323.554 500.283 320.652 493.243 320.652 484.916C320.652 475.782 323.604 468.06 329.509 461.752C335.464 455.393 342.731 452.214 351.31 452.214C359.334 452.214 365.668 454.485 370.311 459.027C374.954 463.518 377.654 470.028 378.411 478.557H335.035ZM335.489 474.242H364.482V472.728C364.482 466.471 363.422 461.954 361.303 459.178C359.233 456.403 355.852 455.015 351.159 455.015C346.314 455.015 342.58 456.63 339.955 459.859C337.381 463.039 335.893 467.833 335.489 474.242ZM427.01 481.812C418.38 481.812 411.769 483.125 407.177 485.749C402.635 488.323 400.364 492.082 400.364 497.028C400.364 500.561 401.423 503.387 403.543 505.506C405.663 507.626 408.489 508.686 412.021 508.686C416.412 508.686 419.995 507.55 422.771 505.279C425.597 503.008 427.01 500.056 427.01 496.422V481.812ZM427.388 504.598C425.42 507.676 422.443 510.149 418.456 512.017C414.52 513.833 410.255 514.742 405.663 514.742C400.414 514.742 396.251 513.48 393.172 510.957C390.144 508.433 388.63 505.077 388.63 500.889C388.63 493.975 392.011 488.524 398.774 484.538C405.587 480.551 414.999 478.507 427.01 478.406V463.872C427.01 460.894 426.001 458.699 423.982 457.286C422.014 455.873 418.961 455.166 414.822 455.166C411.542 455.166 408.64 455.746 406.117 456.907C403.644 458.068 402.408 459.254 402.408 460.465C402.408 460.667 403.114 461.474 404.527 462.887C405.991 464.25 406.722 465.815 406.722 467.581C406.722 469.499 406.142 471.063 404.981 472.274C403.821 473.485 402.332 474.091 400.515 474.091C398.496 474.091 396.907 473.435 395.746 472.123C394.585 470.811 394.005 469.044 394.005 466.824C394.005 462.635 396.276 459.153 400.818 456.377C405.36 453.602 411.214 452.214 418.38 452.214C425.95 452.214 431.274 453.425 434.353 455.847C437.431 458.219 438.971 462.484 438.971 468.641V502.478C438.971 504.85 439.198 506.415 439.652 507.172C440.106 507.878 440.913 508.232 442.074 508.232C443.336 508.232 444.471 507.727 445.481 506.718C446.49 505.658 447.171 504.346 447.525 502.781H450.023C449.72 506.314 448.383 509.165 446.011 511.335C443.689 513.505 440.787 514.59 437.305 514.59C434.328 514.59 432.006 513.758 430.341 512.092C428.675 510.427 427.691 507.929 427.388 504.598ZM458.274 512.849V492.865H461.983C463.497 498.567 466.122 502.983 469.856 506.112C473.591 509.241 478.057 510.805 483.255 510.805C487.696 510.805 491.279 509.67 494.004 507.399C496.729 505.128 498.092 502.15 498.092 498.466C498.092 494.278 493.071 491.224 483.028 489.307C481.06 488.903 479.52 488.575 478.41 488.323C470.689 486.708 465.415 484.613 462.589 482.04C459.813 479.415 458.425 475.63 458.425 470.685C458.425 465.234 460.267 460.793 463.951 457.361C467.636 453.93 472.405 452.214 478.259 452.214C481.589 452.214 484.517 452.668 487.04 453.576C489.614 454.434 491.658 455.696 493.172 457.361L496.275 453.349H498.395V470.533H495.14C494.08 465.587 492.112 461.828 489.235 459.254C486.359 456.63 482.7 455.318 478.259 455.318C474.171 455.318 470.84 456.327 468.266 458.345C465.743 460.364 464.481 462.988 464.481 466.218C464.481 470.357 470.361 473.485 482.119 475.605C484.088 475.958 485.602 476.236 486.661 476.438C492.616 477.498 497.057 479.516 499.985 482.494C502.962 485.421 504.451 489.332 504.451 494.227C504.451 500.535 502.407 505.532 498.319 509.216C494.282 512.9 488.781 514.742 481.817 514.742C478.637 514.742 475.609 514.136 472.733 512.925C469.906 511.714 467.307 509.922 464.936 507.55L461.378 512.849H458.274ZM524.89 422.01C524.89 419.89 525.647 418.098 527.161 416.635C528.675 415.171 530.517 414.44 532.687 414.44C534.806 414.44 536.623 415.197 538.137 416.711C539.651 418.174 540.408 419.941 540.408 422.01C540.408 424.129 539.651 425.946 538.137 427.46C536.623 428.974 534.806 429.731 532.687 429.731C530.517 429.731 528.675 428.974 527.161 427.46C525.647 425.946 524.89 424.129 524.89 422.01ZM515.881 512.849V509.291H526.328V456.907H516.411V453.652H519.364C522.644 453.652 525.874 453.526 529.053 453.274C532.283 453.021 535.336 452.668 538.213 452.214V509.291H547.221V512.849H515.881ZM606.191 494.681V473.94C606.191 469.095 604.374 464.856 600.741 461.222C597.158 457.589 592.944 455.772 588.099 455.772C582.548 455.772 578.586 457.841 576.214 461.979C573.893 466.117 572.732 473.157 572.732 483.099C572.732 493.495 573.943 500.813 576.366 505.052C578.788 509.241 582.851 511.335 588.553 511.335C593.045 511.335 597.107 509.619 600.741 506.188C604.374 502.706 606.191 498.87 606.191 494.681ZM618.152 409.443V509.291H626.554V512.849C621.912 512.849 618 512.975 614.821 513.228C611.692 513.48 608.866 513.859 606.343 514.363V503.387C604.274 507.02 601.523 509.821 598.091 511.79C594.71 513.758 590.95 514.742 586.812 514.742C578.889 514.742 572.202 511.739 566.752 505.734C561.301 499.678 558.576 492.234 558.576 483.402C558.576 474.621 561.301 467.253 566.752 461.298C572.202 455.343 578.939 452.365 586.964 452.365C591.455 452.365 595.316 453.349 598.546 455.318C601.775 457.235 604.274 460.087 606.04 463.872V414.061H595.972V410.957H598.47C601.7 410.957 604.93 410.831 608.159 410.579C611.44 410.327 614.771 409.948 618.152 409.443ZM650.248 478.557V483.099C650.248 493.344 651.561 500.51 654.185 504.598C656.86 508.635 661.452 510.654 667.962 510.654C673.463 510.654 678.131 509.19 681.967 506.263C685.853 503.286 688.502 499.122 689.915 493.773H693.322C691.808 500.687 688.754 505.885 684.162 509.367C679.62 512.849 673.589 514.59 666.07 514.59C657.541 514.59 650.375 511.739 644.571 506.036C638.767 500.283 635.866 493.243 635.866 484.916C635.866 475.782 638.818 468.06 644.722 461.752C650.677 455.393 657.945 452.214 666.524 452.214C674.548 452.214 680.882 454.485 685.525 459.027C690.167 463.518 692.867 470.028 693.624 478.557H650.248ZM650.703 474.242H679.696V472.728C679.696 466.471 678.636 461.954 676.516 459.178C674.447 456.403 671.066 455.015 666.373 455.015C661.528 455.015 657.793 456.63 655.169 459.859C652.595 463.039 651.106 467.833 650.703 474.242Z" fill="#FFC632"/>
</svg>
